<svg width="35" height="46" viewBox="0 0 35 46" fill="none" xmlns="http://www.w3.org/2000/svg">
<path d="M10.8975 38.3753C10.4217 38.39 9.94661 38.3302 9.48926 38.1984C9.84952 38.2987 10.2213 38.352 10.5952 38.3569C10.6911 38.3679 10.798 38.3716 10.8975 38.3753Z" fill="url(#paint0_linear_139_1737)"/>
<path d="M10.5951 38.3569C10.2212 38.352 9.84943 38.2988 9.48916 38.1984L9.32696 38.1468C9.27535 38.1468 9.22373 38.1136 9.17212 38.0915C8.75222 37.9252 8.36525 37.6855 8.0293 37.3837C8.77142 37.9512 9.66327 38.2895 10.5951 38.3569Z" fill="url(#paint1_linear_139_1737)"/>
<path d="M8.0293 37.3837C8.36525 37.6855 8.75222 37.9252 9.17212 38.0915C8.74994 37.9297 8.36218 37.6896 8.0293 37.3837Z" fill="url(#paint2_linear_139_1737)"/>
<path d="M3.95565 16.0718V29.406C3.95565 29.406 1.52991 30.6815 0 30.0438V16.0718C1.8064 14.7262 3.95565 16.0718 3.95565 16.0718Z" fill="url(#paint3_linear_139_1737)"/>
<path d="M17.5627 19.7104C17.692 19.7812 17.8153 19.8626 17.9313 19.9537C17.6244 20.6438 17.1629 21.2541 16.5825 21.7373C16.002 22.2206 15.3182 22.5639 14.5839 22.7407L3.95565 16.0718C3.95565 16.0718 1.8064 14.7262 0 16.0718V15.434C2.57565e-05 14.8105 0.165261 14.1982 0.478882 13.6594C0.792503 13.1206 1.24331 12.6745 1.7854 12.3665C2.32749 12.0586 2.9415 11.8998 3.56492 11.9063C4.18833 11.9128 4.79889 12.0844 5.33442 12.4037L17.5627 19.7104Z" fill="url(#paint4_linear_139_1737)"/>
<path d="M17.9129 19.9537C18.366 20.3064 18.7262 20.7645 18.9619 21.2881C19.1976 21.8117 19.3019 22.385 19.2655 22.958C19.2292 23.5311 19.0534 24.0866 18.7534 24.5762C18.4534 25.0659 18.0383 25.4748 17.5442 25.7674L5.33442 33.0741C4.79889 33.3933 4.18833 33.5649 3.56492 33.5715C2.9415 33.578 2.32749 33.4192 1.7854 33.1112C1.24331 32.8033 0.792503 32.3572 0.478882 31.8184C0.165261 31.2795 2.57565e-05 30.6672 0 30.0438C1.52991 30.6816 3.95565 29.406 3.95565 29.406L14.5655 22.7408C15.2998 22.564 15.9836 22.2207 16.564 21.7374C17.1445 21.2541 17.606 20.6438 17.9129 19.9537Z" fill="url(#paint5_linear_139_1737)"/>
<path d="M29.9863 16.6506C32.1982 18.8625 27.2988 22.7408 27.2988 22.7408L7.421 8.57341C3.4764 5.76427 0.431324 8.33747 0.184326 8.55867V4.87213C0.185272 3.97796 0.432013 3.10125 0.897579 2.33784C1.36315 1.57444 2.02962 0.953706 2.82415 0.543504C3.61868 0.133301 4.51069 -0.0505866 5.40267 0.0119412C6.29465 0.0744689 7.15228 0.381005 7.88181 0.898044L30.001 16.6469L29.9863 16.6506Z" fill="url(#paint6_linear_139_1737)"/>
<path d="M32.9504 18.7815C33.5842 19.2328 34.101 19.8292 34.4575 20.5208C34.8141 21.2124 35.0001 21.9793 35.0001 22.7574C35.0001 23.5355 34.8141 24.3024 34.4575 24.994C34.101 25.6856 33.5842 26.282 32.9504 26.7333L7.88193 44.5872C7.15183 45.1087 6.29203 45.4187 5.39712 45.4832C4.50221 45.5476 3.60687 45.3639 2.80961 44.9523C2.01235 44.5407 1.34408 43.9172 0.878318 43.1503C0.412556 42.3834 0.167355 41.503 0.169694 40.6057V37.3837C0.503342 37.6905 0.892477 37.9307 1.31621 38.0915C1.36413 38.1136 1.41574 38.1284 1.46736 38.1468L1.62956 38.1984C2.08692 38.3303 2.56205 38.39 3.03782 38.3754C5.31979 38.4196 7.28471 37.0077 7.41374 36.9008L27.2989 22.7408C27.2989 22.7408 32.2168 18.8626 29.9864 16.6506L32.9504 18.7815Z" fill="url(#paint7_linear_139_1737)"/>
<defs>
<linearGradient id="paint0_linear_139_1737" x1="10.8203" y1="38.1549" x2="9.41127" y2="38.7299" gradientUnits="userSpaceOnUse">
<stop stop-color="#00F0FF"/>
<stop offset="0.482483" stop-color="#5200FF"/>
<stop offset="1" stop-color="#FF2DF7"/>
</linearGradient>
<linearGradient id="paint1_linear_139_1737" x1="10.4545" y1="37.1477" x2="7.51477" y2="37.55" gradientUnits="userSpaceOnUse">
<stop stop-color="#00F0FF"/>
<stop offset="0.482483" stop-color="#5200FF"/>
<stop offset="1" stop-color="#FF2DF7"/>
</linearGradient>
<linearGradient id="paint2_linear_139_1737" x1="9.1095" y1="37.2121" x2="7.78491" y2="37.3231" gradientUnits="userSpaceOnUse">
<stop stop-color="#00F0FF"/>
<stop offset="0.482483" stop-color="#5200FF"/>
<stop offset="1" stop-color="#FF2DF7"/>
</linearGradient>
<linearGradient id="paint3_linear_139_1737" x1="3.7389" y1="11.8983" x2="-0.877193" y2="11.9626" gradientUnits="userSpaceOnUse">
<stop stop-color="#00F0FF"/>
<stop offset="0.482483" stop-color="#5200FF"/>
<stop offset="1" stop-color="#FF2DF7"/>
</linearGradient>
<linearGradient id="paint4_linear_139_1737" x1="16.9488" y1="9.27956" x2="-3.82716" y2="11.0641" gradientUnits="userSpaceOnUse">
<stop stop-color="#00F0FF"/>
<stop offset="0.482483" stop-color="#5200FF"/>
<stop offset="1" stop-color="#FF2DF7"/>
</linearGradient>
<linearGradient id="paint5_linear_139_1737" x1="18.2166" y1="16.6524" x2="-4.15748" y2="18.2958" gradientUnits="userSpaceOnUse">
<stop stop-color="#00F0FF"/>
<stop offset="0.482483" stop-color="#5200FF"/>
<stop offset="1" stop-color="#FF2DF7"/>
</linearGradient>
<linearGradient id="paint6_linear_139_1737" x1="28.8954" y1="-5.51291" x2="-6.38894" y2="-3.06681" gradientUnits="userSpaceOnUse">
<stop stop-color="#00F0FF"/>
<stop offset="0.482483" stop-color="#5200FF"/>
<stop offset="1" stop-color="#FF2DF7"/>
</linearGradient>
<linearGradient id="paint7_linear_139_1737" x1="33.0916" y1="9.65788" x2="-7.40304" y2="12.1957" gradientUnits="userSpaceOnUse">
<stop stop-color="#00F0FF"/>
<stop offset="0.482483" stop-color="#5200FF"/>
<stop offset="1" stop-color="#FF2DF7"/>
</linearGradient>
</defs>
</svg>
